<?xml version="1.0" encoding="UTF-8"?><svg xmlns="http://www.w3.org/2000/svg" width="261.54mm" height="67.3mm" viewBox="0 0 741.36 190.78"><defs><style>.uuid-1291df3d-7862-4242-b82a-78474fc35432{fill:#fff;}.uuid-2405bc79-9e91-4a08-abf1-2de80a623a85{fill:#040000;}.uuid-7a27d1f7-55bd-4fce-b942-31d831e253ab{fill:#881c28;}.uuid-eef2efd6-c907-44cf-8313-b55cd3b028ed{fill:#231815;}</style></defs><g id="uuid-56d49490-1972-4ef9-a50b-36c753b918f5"><rect class="uuid-7a27d1f7-55bd-4fce-b942-31d831e253ab" width="356.6" height="178.3"/><path class="uuid-1291df3d-7862-4242-b82a-78474fc35432" d="m59.23,119.92h-4.68v2.71h4.45v2.73h-4.45v3.11h4.68v2.73h-7.92v-14h7.92v2.73Z"/><path class="uuid-1291df3d-7862-4242-b82a-78474fc35432" d="m61.5,121.83h3.02v1.09c.78-1.18,1.91-1.32,2.62-1.32.4,0,1.13.04,1.76.42.48.27.88.74,1.13,1.3.23-.38.59-.82,1.2-1.2.65-.4,1.26-.53,1.99-.53,1.13,0,2.06.34,2.62.88.9.86.97,2.12.97,2.79v5.92h-3.02v-4.75c0-.48,0-1.32-.4-1.83-.25-.31-.65-.5-1.09-.5-.5,0-.92.23-1.18.57-.4.5-.46,1.24-.46,1.85v4.66h-3.02v-4.87c0-.63-.02-1.37-.48-1.83-.31-.31-.69-.38-1.01-.38-.4,0-.76.11-1.05.38-.57.55-.59,1.6-.59,1.91v4.79h-3.02v-9.36Z"/><path class="uuid-1291df3d-7862-4242-b82a-78474fc35432" d="m82.31,115.89v6.99c.76-1.03,1.89-1.37,2.92-1.37,1.28,0,2.44.48,3.25,1.26.9.86,1.47,2.14,1.47,3.7,0,1.45-.5,2.79-1.47,3.76-.82.84-1.83,1.28-3.21,1.28-1.66,0-2.5-.78-2.96-1.45v1.13h-3.02v-15.31h3.02Zm.48,8.92c-.36.38-.67.92-.67,1.72s.34,1.34.69,1.68c.48.46,1.15.69,1.72.69.52,0,1.11-.21,1.57-.65.44-.42.73-1.03.73-1.72,0-.76-.29-1.37-.73-1.79-.48-.46-1.01-.63-1.62-.63-.65,0-1.22.19-1.7.69Z"/><path class="uuid-1291df3d-7862-4242-b82a-78474fc35432" d="m100.98,130c-.84.84-2.27,1.51-4.09,1.51s-3.25-.67-4.09-1.51c-.94-.94-1.41-2.29-1.41-3.49s.46-2.54,1.41-3.49c.84-.84,2.27-1.51,4.09-1.51s3.25.67,4.09,1.51c.94.95,1.41,2.29,1.41,3.49s-.46,2.54-1.41,3.49Zm-5.79-5.25c-.44.44-.69,1.01-.69,1.76,0,.86.34,1.41.69,1.76.38.38.92.67,1.72.67.67,0,1.24-.23,1.68-.67.44-.44.69-1.01.69-1.76s-.25-1.32-.69-1.76c-.44-.44-1.01-.67-1.7-.67s-1.26.23-1.7.67Z"/><path class="uuid-1291df3d-7862-4242-b82a-78474fc35432" d="m114.48,131.19h-3.02v-1.13c-.46.67-1.3,1.45-2.96,1.45-1.39,0-2.39-.44-3.21-1.28-.97-.97-1.47-2.31-1.47-3.76,0-1.55.57-2.83,1.47-3.7.82-.78,1.97-1.26,3.25-1.26,1.03,0,2.16.34,2.92,1.37v-6.99h3.02v15.31Zm-6.82-6.45c-.44.42-.73,1.03-.73,1.79,0,.69.29,1.3.73,1.72.46.44,1.05.65,1.57.65.57,0,1.24-.23,1.72-.69.36-.34.69-.9.69-1.68s-.31-1.34-.67-1.72c-.48-.5-1.05-.69-1.7-.69-.61,0-1.13.17-1.62.63Z"/><path class="uuid-1291df3d-7862-4242-b82a-78474fc35432" d="m118.64,116.08c.99,0,1.76.78,1.76,1.76s-.78,1.76-1.76,1.76-1.76-.78-1.76-1.76.78-1.76,1.76-1.76Zm1.51,5.75v9.36h-3.02v-9.36h3.02Z"/><path class="uuid-1291df3d-7862-4242-b82a-78474fc35432" d="m132.31,127.04h-6.99c0,.5.19,1.18.57,1.6.46.5,1.09.59,1.55.59s.9-.08,1.22-.27c.04-.02.4-.25.65-.78l2.86.29c-.42,1.32-1.26,2.02-1.81,2.35-.9.55-1.91.69-2.96.69-1.41,0-2.65-.25-3.74-1.34-.82-.82-1.41-2.06-1.41-3.61,0-1.34.48-2.73,1.43-3.7,1.13-1.13,2.54-1.34,3.59-1.34s2.56.19,3.72,1.41c1.11,1.18,1.32,2.65,1.32,3.8v.32Zm-2.79-1.81c-.02-.08-.17-.67-.61-1.09-.34-.32-.82-.53-1.43-.53-.78,0-1.24.32-1.53.61-.23.25-.44.59-.52,1.01h4.09Z"/><path class="uuid-1291df3d-7862-4242-b82a-78474fc35432" d="m144.41,131.19h-3.02v-1.13c-.46.67-1.3,1.45-2.96,1.45-1.39,0-2.39-.44-3.21-1.28-.97-.97-1.47-2.31-1.47-3.76,0-1.55.57-2.83,1.47-3.7.82-.78,1.97-1.26,3.25-1.26,1.03,0,2.16.34,2.92,1.37v-6.99h3.02v15.31Zm-6.82-6.45c-.44.42-.73,1.03-.73,1.79,0,.69.29,1.3.73,1.72.46.44,1.05.65,1.57.65.57,0,1.24-.23,1.72-.69.36-.34.69-.9.69-1.68s-.31-1.34-.67-1.72c-.48-.5-1.05-.69-1.7-.69-.61,0-1.13.17-1.62.63Z"/><path class="uuid-1291df3d-7862-4242-b82a-78474fc35432" d="m155.39,117.19v14h-3.23v-14h3.23Z"/><path class="uuid-1291df3d-7862-4242-b82a-78474fc35432" d="m158.16,121.83h3.02v1.11c.92-1.18,2.02-1.36,2.9-1.36.82,0,1.89.15,2.69.94.88.88.94,2,.94,2.75v5.92h-3.02v-4.81c0-.61-.02-1.39-.5-1.87-.23-.23-.61-.42-1.15-.42-.63,0-1.03.25-1.26.5-.5.5-.59,1.18-.59,1.78v4.81h-3.02v-9.36Z"/><path class="uuid-1291df3d-7862-4242-b82a-78474fc35432" d="m173.18,124.26v6.93h-3.02v-6.93h-1.05v-2.44h1.05v-3.02h3.02v3.02h1.87v2.44h-1.87Z"/><path class="uuid-1291df3d-7862-4242-b82a-78474fc35432" d="m185.94,127.04h-6.99c0,.5.19,1.18.57,1.6.46.5,1.09.59,1.55.59s.9-.08,1.22-.27c.04-.02.4-.25.65-.78l2.86.29c-.42,1.32-1.26,2.02-1.81,2.35-.9.55-1.91.69-2.96.69-1.41,0-2.65-.25-3.74-1.34-.82-.82-1.41-2.06-1.41-3.61,0-1.34.48-2.73,1.43-3.7,1.13-1.13,2.54-1.34,3.59-1.34s2.56.19,3.72,1.41c1.11,1.18,1.32,2.65,1.32,3.8v.32Zm-2.79-1.81c-.02-.08-.17-.67-.61-1.09-.34-.32-.82-.53-1.43-.53-.78,0-1.24.32-1.53.61-.23.25-.44.59-.52,1.01h4.09Z"/><path class="uuid-1291df3d-7862-4242-b82a-78474fc35432" d="m190.94,115.89v15.31h-3.02v-15.31h3.02Z"/><path class="uuid-1291df3d-7862-4242-b82a-78474fc35432" d="m196.49,115.89v15.31h-3.02v-15.31h3.02Z"/><path class="uuid-1291df3d-7862-4242-b82a-78474fc35432" d="m200.64,116.08c.99,0,1.76.78,1.76,1.76s-.78,1.76-1.76,1.76-1.76-.78-1.76-1.76.78-1.76,1.76-1.76Zm1.51,5.75v9.36h-3.02v-9.36h3.02Z"/><path class="uuid-1291df3d-7862-4242-b82a-78474fc35432" d="m211.84,121.83h3.02v8.8c0,1.32-.06,2.81-1.16,3.99-1.15,1.24-2.92,1.39-3.95,1.39-1.24,0-2.73-.19-3.91-1.2-.59-.5-1.2-1.3-1.41-2.48h3.3c.13.48.42.76.67.92.36.23.86.31,1.3.31.86,0,1.3-.31,1.51-.5.59-.57.61-1.55.61-1.95v-1.07c-.36.59-1.07,1.41-2.79,1.41-1.45,0-2.56-.46-3.42-1.32-.76-.78-1.37-1.91-1.37-3.53s.59-2.92,1.39-3.74c.57-.59,1.66-1.34,3.4-1.34s2.46.9,2.79,1.41v-1.09Zm-3.76,2.92c-.46.44-.71,1.18-.71,1.74,0,.61.23,1.24.65,1.68.42.44.99.67,1.7.67.8,0,1.32-.32,1.64-.61.46-.44.74-1.09.74-1.78,0-.74-.32-1.34-.71-1.72-.44-.4-1.09-.59-1.64-.59-.67,0-1.28.25-1.66.61Z"/><path class="uuid-1291df3d-7862-4242-b82a-78474fc35432" d="m226.81,127.04h-6.99c0,.5.19,1.18.57,1.6.46.5,1.09.59,1.55.59s.9-.08,1.22-.27c.04-.02.4-.25.65-.78l2.86.29c-.42,1.32-1.26,2.02-1.81,2.35-.9.55-1.91.69-2.96.69-1.41,0-2.65-.25-3.74-1.34-.82-.82-1.41-2.06-1.41-3.61,0-1.34.48-2.73,1.43-3.7,1.13-1.13,2.54-1.34,3.59-1.34s2.56.19,3.72,1.41c1.11,1.18,1.32,2.65,1.32,3.8v.32Zm-2.79-1.81c-.02-.08-.17-.67-.61-1.09-.34-.32-.82-.53-1.43-.53-.78,0-1.24.32-1.53.61-.23.25-.44.59-.53,1.01h4.09Z"/><path class="uuid-1291df3d-7862-4242-b82a-78474fc35432" d="m228.7,121.83h3.02v1.11c.92-1.18,2.02-1.36,2.9-1.36.82,0,1.89.15,2.69.94.88.88.95,2,.95,2.75v5.92h-3.02v-4.81c0-.61-.02-1.39-.5-1.87-.23-.23-.61-.42-1.16-.42-.63,0-1.03.25-1.26.5-.5.5-.59,1.18-.59,1.78v4.81h-3.02v-9.36Z"/><path class="uuid-1291df3d-7862-4242-b82a-78474fc35432" d="m247.64,124.79c-.73-.61-1.49-.71-1.97-.71-.94,0-1.51.46-1.72.67-.4.4-.69,1.01-.69,1.76,0,.69.25,1.28.63,1.68.46.5,1.15.76,1.83.76.53,0,1.24-.15,1.93-.73v2.73c-.8.44-1.55.57-2.39.57-1.57,0-2.77-.57-3.63-1.41-.71-.69-1.47-1.87-1.47-3.57,0-1.6.67-2.86,1.55-3.7,1.05-.99,2.29-1.32,3.57-1.32.82,0,1.57.15,2.37.53v2.75Z"/><path class="uuid-1291df3d-7862-4242-b82a-78474fc35432" d="m259.25,127.04h-6.99c0,.5.19,1.18.57,1.6.46.5,1.09.59,1.55.59s.9-.08,1.22-.27c.04-.02.4-.25.65-.78l2.86.29c-.42,1.32-1.26,2.02-1.81,2.35-.9.55-1.91.69-2.96.69-1.41,0-2.65-.25-3.74-1.34-.82-.82-1.41-2.06-1.41-3.61,0-1.34.48-2.73,1.43-3.7,1.13-1.13,2.54-1.34,3.59-1.34s2.56.19,3.72,1.41c1.11,1.18,1.32,2.65,1.32,3.8v.32Zm-2.79-1.81c-.02-.08-.17-.67-.61-1.09-.34-.32-.82-.53-1.43-.53-.78,0-1.24.32-1.53.61-.23.25-.44.59-.52,1.01h4.09Z"/><path class="uuid-1291df3d-7862-4242-b82a-78474fc35432" d="m271.46,131.19h-1.89l-4.66-9.36h3.32l2.41,4.98,2.37-5.1h1.6l2.37,5.1,2.42-4.98h3.32l-4.66,9.36h-1.89l-2.35-5.33-2.35,5.33Z"/><path class="uuid-1291df3d-7862-4242-b82a-78474fc35432" d="m285.65,116.08c.99,0,1.76.78,1.76,1.76s-.78,1.76-1.76,1.76-1.76-.78-1.76-1.76.78-1.76,1.76-1.76Zm1.51,5.75v9.36h-3.02v-9.36h3.02Z"/><path class="uuid-1291df3d-7862-4242-b82a-78474fc35432" d="m292.83,124.26v6.93h-3.02v-6.93h-1.05v-2.44h1.05v-3.02h3.02v3.02h1.87v2.44h-1.87Z"/><path class="uuid-1291df3d-7862-4242-b82a-78474fc35432" d="m296.09,115.89h3.02v7.05c.38-.46.78-.78,1.13-.97.63-.34,1.16-.4,1.83-.4.73,0,1.83.1,2.65.94.86.86.92,2.02.92,2.73v5.94h-3.02v-4.81c0-.65-.02-1.41-.5-1.87-.27-.27-.74-.42-1.18-.42-.65,0-1.03.29-1.2.46-.61.59-.63,1.49-.63,1.95v4.68h-3.02v-15.31Z"/><path class="uuid-1291df3d-7862-4242-b82a-78474fc35432" d="m65.66,142.39c1.85,0,3.8.27,5.52,1.93,1.24,1.2,2.02,2.83,2.02,5.02s-.76,3.8-1.91,4.96c-1.93,1.95-4.35,2.1-5.52,2.1h-4.54v-14h4.43Zm-1.2,11.28h.86c.67,0,2.14-.06,3.19-.95.76-.63,1.36-1.83,1.36-3.38s-.61-2.48-1.15-3.02c-1.05-1.05-2.41-1.2-3.4-1.2h-.86v8.55Z"/><path class="uuid-1291df3d-7862-4242-b82a-78474fc35432" d="m84.85,152.24h-6.99c0,.5.19,1.18.57,1.6.46.5,1.09.59,1.55.59s.9-.08,1.22-.27c.04-.02.4-.25.65-.78l2.86.29c-.42,1.32-1.26,2.02-1.81,2.35-.9.55-1.91.69-2.96.69-1.41,0-2.65-.25-3.74-1.34-.82-.82-1.41-2.06-1.41-3.61,0-1.34.48-2.73,1.43-3.7,1.13-1.13,2.54-1.34,3.59-1.34s2.56.19,3.72,1.41c1.11,1.18,1.32,2.65,1.32,3.8v.32Zm-2.79-1.81c-.02-.08-.17-.67-.61-1.09-.34-.32-.82-.53-1.43-.53-.78,0-1.24.32-1.53.61-.23.25-.44.59-.52,1.01h4.09Z"/><path class="uuid-1291df3d-7862-4242-b82a-78474fc35432" d="m96.34,152.24h-6.99c0,.5.19,1.18.57,1.6.46.5,1.09.59,1.55.59s.9-.08,1.22-.27c.04-.02.4-.25.65-.78l2.86.29c-.42,1.32-1.26,2.02-1.81,2.35-.9.55-1.91.69-2.96.69-1.41,0-2.65-.25-3.74-1.34-.82-.82-1.41-2.06-1.41-3.61,0-1.34.48-2.73,1.43-3.7,1.13-1.13,2.54-1.34,3.59-1.34s2.56.19,3.72,1.41c1.11,1.18,1.32,2.65,1.32,3.8v.32Zm-2.79-1.81c-.02-.08-.17-.67-.61-1.09-.34-.32-.82-.53-1.43-.53-.78,0-1.24.32-1.53.61-.23.25-.44.59-.52,1.01h4.09Z"/><path class="uuid-1291df3d-7862-4242-b82a-78474fc35432" d="m101.25,161.2h-3.02v-14.17h3.02v1.11c.99-1.28,2.2-1.43,2.92-1.43,1.68,0,2.73.74,3.32,1.32.84.84,1.41,2.12,1.41,3.65,0,1.62-.57,2.83-1.49,3.76s-1.93,1.26-3.17,1.26c-1.87,0-2.67-.94-2.98-1.39v5.88Zm.5-11.19c-.48.48-.71,1.15-.71,1.72s.23,1.2.67,1.66c.44.44,1.07.71,1.72.71.57,0,1.18-.23,1.62-.65.48-.46.73-1.18.73-1.79,0-.69-.29-1.3-.71-1.7-.44-.42-1.03-.65-1.64-.65-.84,0-1.39.4-1.68.69Z"/><path class="uuid-1291df3d-7862-4242-b82a-78474fc35432" d="m120.97,142.39c1.22,0,2.56.17,3.67,1.16,1.2,1.05,1.36,2.44,1.36,3.4,0,1.76-.67,2.75-1.2,3.3-1.11,1.13-2.58,1.24-3.57,1.24h-1.97v4.91h-3.23v-14h4.93Zm-1.7,6.45h1.15c.44,0,1.22-.02,1.74-.53.29-.29.52-.78.52-1.39s-.21-1.07-.52-1.36c-.48-.46-1.18-.53-1.81-.53h-1.09v3.8Z"/><path class="uuid-1291df3d-7862-4242-b82a-78474fc35432" d="m127.69,147.03h3.02v1.47c.27-.53.69-1.01,1.18-1.3.5-.32,1.03-.4,1.62-.4.38,0,.65.04.99.15l-.17,2.83c-.4-.21-.84-.34-1.36-.34-.65,0-1.13.23-1.51.63-.67.71-.73,1.72-.73,2.52v3.8h-3.02v-9.36Z"/><path class="uuid-1291df3d-7862-4242-b82a-78474fc35432" d="m145.04,152.24h-6.99c0,.5.19,1.18.57,1.6.46.5,1.09.59,1.55.59s.9-.08,1.22-.27c.04-.02.4-.25.65-.78l2.86.29c-.42,1.32-1.26,2.02-1.81,2.35-.9.55-1.91.69-2.96.69-1.41,0-2.65-.25-3.74-1.34-.82-.82-1.41-2.06-1.41-3.61,0-1.34.48-2.73,1.43-3.7,1.13-1.13,2.54-1.34,3.59-1.34s2.56.19,3.72,1.41c1.11,1.18,1.32,2.65,1.32,3.8v.32Zm-2.79-1.81c-.02-.08-.17-.67-.61-1.09-.34-.32-.82-.53-1.43-.53-.78,0-1.24.32-1.53.61-.23.25-.44.59-.52,1.01h4.09Z"/><path class="uuid-1291df3d-7862-4242-b82a-78474fc35432" d="m157.13,156.39h-3.02v-1.13c-.46.67-1.3,1.45-2.96,1.45-1.39,0-2.39-.44-3.21-1.28-.97-.97-1.47-2.31-1.47-3.76,0-1.55.57-2.83,1.47-3.7.82-.78,1.97-1.26,3.25-1.26,1.03,0,2.16.34,2.92,1.37v-6.99h3.02v15.31Zm-6.82-6.45c-.44.42-.73,1.03-.73,1.79,0,.69.29,1.3.73,1.72.46.44,1.05.65,1.57.65.57,0,1.24-.23,1.72-.69.36-.34.69-.9.69-1.68s-.31-1.34-.67-1.72c-.48-.5-1.05-.69-1.7-.69-.61,0-1.13.17-1.62.63Z"/><path class="uuid-1291df3d-7862-4242-b82a-78474fc35432" d="m161.29,141.28c.99,0,1.76.78,1.76,1.76s-.78,1.76-1.76,1.76-1.76-.78-1.76-1.76.78-1.76,1.76-1.76Zm1.51,5.75v9.36h-3.02v-9.36h3.02Z"/><path class="uuid-1291df3d-7862-4242-b82a-78474fc35432" d="m172.4,149.99c-.73-.61-1.49-.71-1.97-.71-.94,0-1.51.46-1.72.67-.4.4-.69,1.01-.69,1.76,0,.69.25,1.28.63,1.68.46.5,1.15.76,1.83.76.52,0,1.24-.15,1.93-.73v2.73c-.8.44-1.55.57-2.39.57-1.57,0-2.77-.57-3.63-1.41-.71-.69-1.47-1.87-1.47-3.57,0-1.6.67-2.86,1.55-3.7,1.05-.99,2.29-1.32,3.57-1.32.82,0,1.57.15,2.37.53v2.75Z"/><path class="uuid-1291df3d-7862-4242-b82a-78474fc35432" d="m177.97,149.46v6.93h-3.02v-6.93h-1.05v-2.44h1.05v-3.02h3.02v3.02h1.87v2.44h-1.87Z"/><path class="uuid-1291df3d-7862-4242-b82a-78474fc35432" d="m182.86,141.28c.99,0,1.76.78,1.76,1.76s-.78,1.76-1.76,1.76-1.76-.78-1.76-1.76.78-1.76,1.76-1.76Zm1.51,5.75v9.36h-3.02v-9.36h3.02Z"/><path class="uuid-1291df3d-7862-4242-b82a-78474fc35432" d="m189.12,147.03l2.37,5.02,2.37-5.02h3.32l-4.75,9.36h-1.89l-4.75-9.36h3.32Z"/><path class="uuid-1291df3d-7862-4242-b82a-78474fc35432" d="m207.68,152.24h-6.99c0,.5.19,1.18.57,1.6.46.5,1.09.59,1.55.59s.9-.08,1.22-.27c.04-.02.4-.25.65-.78l2.86.29c-.42,1.32-1.26,2.02-1.81,2.35-.9.55-1.91.69-2.96.69-1.41,0-2.65-.25-3.74-1.34-.82-.82-1.41-2.06-1.41-3.61,0-1.34.48-2.73,1.43-3.7,1.13-1.13,2.54-1.34,3.59-1.34s2.56.19,3.72,1.41c1.11,1.18,1.32,2.65,1.32,3.8v.32Zm-2.79-1.81c-.02-.08-.17-.67-.61-1.09-.34-.32-.82-.53-1.43-.53-.78,0-1.24.32-1.53.61-.23.25-.44.59-.52,1.01h4.09Z"/><path class="uuid-1291df3d-7862-4242-b82a-78474fc35432" d="m218.05,142.39v11.28h4.35v2.73h-7.58v-14h3.23Z"/><path class="uuid-1291df3d-7862-4242-b82a-78474fc35432" d="m233.47,152.24h-6.99c0,.5.19,1.18.57,1.6.46.5,1.09.59,1.55.59s.9-.08,1.22-.27c.04-.02.4-.25.65-.78l2.86.29c-.42,1.32-1.26,2.02-1.81,2.35-.9.55-1.91.69-2.96.69-1.41,0-2.65-.25-3.74-1.34-.82-.82-1.41-2.06-1.41-3.61,0-1.34.48-2.73,1.43-3.7,1.13-1.13,2.54-1.34,3.59-1.34s2.56.19,3.72,1.41c1.11,1.18,1.32,2.65,1.32,3.8v.32Zm-2.79-1.81c-.02-.08-.17-.67-.61-1.09-.34-.32-.82-.53-1.43-.53-.78,0-1.24.32-1.53.61-.23.25-.44.59-.53,1.01h4.09Z"/><path class="uuid-1291df3d-7862-4242-b82a-78474fc35432" d="m242.54,147.03h3.02v9.36h-3.02v-1.13c-.82,1.26-1.99,1.45-2.77,1.45-1.34,0-2.48-.34-3.51-1.43-.99-1.05-1.37-2.27-1.37-3.51,0-1.58.59-2.92,1.45-3.78.82-.82,1.95-1.28,3.25-1.28.8,0,2.08.19,2.94,1.37v-1.05Zm-3.84,2.96c-.32.32-.69.86-.69,1.7s.36,1.39.63,1.68c.42.44,1.07.73,1.79.73.61,0,1.18-.25,1.57-.65.4-.38.74-.97.74-1.76,0-.67-.25-1.3-.69-1.72-.46-.44-1.13-.65-1.68-.65-.65,0-1.26.27-1.66.67Z"/><path class="uuid-1291df3d-7862-4242-b82a-78474fc35432" d="m247.92,147.03h3.02v1.47c.27-.53.69-1.01,1.18-1.3.5-.32,1.03-.4,1.62-.4.38,0,.65.04.99.15l-.17,2.83c-.4-.21-.84-.34-1.36-.34-.65,0-1.13.23-1.51.63-.67.71-.74,1.72-.74,2.52v3.8h-3.02v-9.36Z"/><path class="uuid-1291df3d-7862-4242-b82a-78474fc35432" d="m255.98,147.03h3.02v1.11c.92-1.18,2.02-1.36,2.9-1.36.82,0,1.89.15,2.69.94.88.88.94,2,.94,2.75v5.92h-3.02v-4.81c0-.61-.02-1.39-.5-1.87-.23-.23-.61-.42-1.15-.42-.63,0-1.03.25-1.26.5-.5.5-.59,1.18-.59,1.78v4.81h-3.02v-9.36Z"/><path class="uuid-1291df3d-7862-4242-b82a-78474fc35432" d="m269.61,141.28c.99,0,1.76.78,1.76,1.76s-.78,1.76-1.76,1.76-1.76-.78-1.76-1.76.78-1.76,1.76-1.76Zm1.51,5.75v9.36h-3.02v-9.36h3.02Z"/><path class="uuid-1291df3d-7862-4242-b82a-78474fc35432" d="m273.68,147.03h3.02v1.11c.92-1.18,2.02-1.36,2.9-1.36.82,0,1.89.15,2.69.94.88.88.94,2,.94,2.75v5.92h-3.02v-4.81c0-.61-.02-1.39-.5-1.87-.23-.23-.61-.42-1.15-.42-.63,0-1.03.25-1.26.5-.5.5-.59,1.18-.59,1.78v4.81h-3.02v-9.36Z"/><path class="uuid-1291df3d-7862-4242-b82a-78474fc35432" d="m292.71,147.03h3.02v8.8c0,1.32-.06,2.81-1.16,3.99-1.15,1.24-2.92,1.39-3.95,1.39-1.24,0-2.73-.19-3.91-1.2-.59-.5-1.2-1.3-1.41-2.48h3.3c.13.48.42.76.67.92.36.23.86.31,1.3.31.86,0,1.3-.31,1.51-.5.59-.57.61-1.55.61-1.95v-1.07c-.36.59-1.07,1.41-2.79,1.41-1.45,0-2.56-.46-3.42-1.32-.76-.78-1.37-1.91-1.37-3.53s.59-2.92,1.39-3.74c.57-.59,1.66-1.34,3.4-1.34s2.46.9,2.79,1.41v-1.09Zm-3.76,2.92c-.46.44-.71,1.18-.71,1.74,0,.61.23,1.24.65,1.68.42.44.99.67,1.7.67.8,0,1.32-.32,1.64-.61.46-.44.74-1.09.74-1.78,0-.74-.32-1.34-.71-1.72-.44-.4-1.09-.59-1.64-.59-.67,0-1.28.25-1.66.61Z"/><path class="uuid-1291df3d-7862-4242-b82a-78474fc35432" d="m184.34,44.91h-21.41v12.38h20.35v12.48h-20.35v14.21h21.41v12.48h-36.19V32.44h36.19v12.48Z"/><path class="uuid-1291df3d-7862-4242-b82a-78474fc35432" d="m211.42,32.44v64.03h-14.78V32.44h14.78Z"/><path class="uuid-1291df3d-7862-4242-b82a-78474fc35432" d="m248.28,32.44c5.57,0,11.71.77,16.8,5.28,5.47,4.8,6.24,11.14,6.24,15.55,0,8.06-3.07,12.58-5.47,15.07-5.09,5.18-11.81,5.66-16.32,5.66h-9.02v22.46h-14.78V32.44h22.56Zm-7.78,29.47h5.28c2.02,0,5.57-.1,7.97-2.4,1.34-1.34,2.4-3.55,2.4-6.34s-.96-4.9-2.4-6.24c-2.21-2.11-5.38-2.4-8.25-2.4h-4.99v17.37Z"/><path class="uuid-1291df3d-7862-4242-b82a-78474fc35432" d="m295.42,32.44v51.55h19.87v12.48h-34.65V32.44h14.78Z"/></g><g id="uuid-4175aa1b-577f-4acd-a809-f07b2a6b9101"><rect class="uuid-1291df3d-7862-4242-b82a-78474fc35432" x="39.97" y="57.35" width="90.2" height="38.99" rx="16.43" ry="16.43"/><path class="uuid-1291df3d-7862-4242-b82a-78474fc35432" d="m85.07,50.18l-35.9-11.66c9.04-3.86,22.14-6.08,35.9-6.08s26.86,2.22,35.9,6.08l-35.9,11.66Z"/><rect class="uuid-1291df3d-7862-4242-b82a-78474fc35432" x="46.72" y="38.33" width="76.71" height="16.18" rx="3.52" ry="3.52"/><rect class="uuid-1291df3d-7862-4242-b82a-78474fc35432" x="39.97" y="51.68" width="90.2" height="23.68"/><path class="uuid-1291df3d-7862-4242-b82a-78474fc35432" d="m41.07,50.34c-.61.22-1.11.92-1.11,1.57v4.26c0,.65.5,1.35,1.11,1.57l7.08,2.52c.61.22,1.6.22,2.21,0l7.08-2.52c.61-.22,1.11-.92,1.11-1.57v-4.26c0-.65-.5-1.35-1.11-1.57l-7.08-2.52c-.61-.22-1.6-.22-2.21,0l-7.08,2.52Z"/><path class="uuid-1291df3d-7862-4242-b82a-78474fc35432" d="m112.7,50.34c-.61.22-1.11.92-1.11,1.57v4.26c0,.65.5,1.35,1.11,1.57l7.08,2.52c.61.22,1.6.22,2.21,0l7.08-2.52c.61-.22,1.11-.92,1.11-1.57v-4.26c0-.65-.5-1.35-1.11-1.57l-7.08-2.52c-.61-.22-1.6-.22-2.21,0l-7.08,2.52Z"/><circle class="uuid-2405bc79-9e91-4a08-abf1-2de80a623a85" cx="85.07" cy="81.67" r="4.5"/><ellipse class="uuid-2405bc79-9e91-4a08-abf1-2de80a623a85" cx="61.37" cy="71.4" rx="7.35" ry="10.06"/><ellipse class="uuid-2405bc79-9e91-4a08-abf1-2de80a623a85" cx="108.78" cy="71.4" rx="7.35" ry="10.06"/><rect class="uuid-eef2efd6-c907-44cf-8313-b55cd3b028ed" x="53.34" y="40.1" width="63.47" height="9.2" rx="1.76" ry="1.76"/></g></svg>