<?xml version="1.0" encoding="UTF-8"?><svg id="uuid-94fcc09e-42c5-4614-ae88-736b4b480bd3" xmlns="http://www.w3.org/2000/svg" width="256" height="181.38" viewBox="0 0 256 181.38"><defs><style>.uuid-98640518-2163-4782-b71a-aa03ae8ba215{fill:#fff;}.uuid-aae8b1b6-f1c4-4be6-b597-a23d0c959ccb{fill:#040000;}.uuid-8f5f2828-66c5-457d-99f8-c7c9775563fa{fill:#231815;}</style></defs><rect class="uuid-98640518-2163-4782-b71a-aa03ae8ba215" y="70.73" width="256" height="110.66" rx="46.62" ry="46.62"/><path class="uuid-98640518-2163-4782-b71a-aa03ae8ba215" d="m128,50.37L26.13,17.27C51.78,6.3,88.96,0,128,0s76.22,6.3,101.87,17.27l-101.87,33.1Z"/><rect class="uuid-98640518-2163-4782-b71a-aa03ae8ba215" x="19.15" y="16.75" width="217.7" height="45.93" rx="9.99" ry="9.99"/><rect class="uuid-98640518-2163-4782-b71a-aa03ae8ba215" y="54.63" width="256" height="67.21"/><path class="uuid-98640518-2163-4782-b71a-aa03ae8ba215" d="m3.14,50.82C1.41,51.43,0,53.43,0,55.26v12.09c0,1.83,1.41,3.83,3.14,4.45l20.08,7.14c1.73.61,4.55.61,6.28,0l20.08-7.14c1.73-.61,3.14-2.61,3.14-4.45v-12.09c0-1.83-1.41-3.83-3.14-4.45l-20.08-7.14c-1.73-.61-4.55-.61-6.28,0l-20.08,7.14Z"/><path class="uuid-98640518-2163-4782-b71a-aa03ae8ba215" d="m206.42,50.82c-1.73.61-3.14,2.61-3.14,4.45v12.09c0,1.83,1.41,3.83,3.14,4.45l20.08,7.14c1.73.61,4.55.61,6.28,0l20.08-7.14c1.73-.61,3.14-2.61,3.14-4.45v-12.09c0-1.83-1.41-3.83-3.14-4.45l-20.08-7.14c-1.73-.61-4.55-.61-6.28,0l-20.08,7.14Z"/><circle class="uuid-aae8b1b6-f1c4-4be6-b597-a23d0c959ccb" cx="128" cy="139.73" r="12.77"/><ellipse class="uuid-aae8b1b6-f1c4-4be6-b597-a23d0c959ccb" cx="60.72" cy="110.58" rx="20.87" ry="28.56"/><ellipse class="uuid-aae8b1b6-f1c4-4be6-b597-a23d0c959ccb" cx="195.28" cy="110.58" rx="20.87" ry="28.56"/><rect class="uuid-8f5f2828-66c5-457d-99f8-c7c9775563fa" x="37.94" y="21.76" width="180.13" height="26.1" rx="5" ry="5"/></svg>